<svg id="visual" viewBox="0 0 900 600" width="900" height="600" xmlns="http://www.w3.org/2000/svg" xmlns:xlink="http://www.w3.org/1999/xlink" version="1.1"><rect x="0" y="0" width="900" height="600" fill="#16312c"></rect><defs><linearGradient id="grad1_0" x1="33.3%" y1="0%" x2="100%" y2="100%"><stop offset="20%" stop-color="#16312c" stop-opacity="1"></stop><stop offset="80%" stop-color="#16312c" stop-opacity="1"></stop></linearGradient></defs><defs><linearGradient id="grad2_0" x1="0%" y1="0%" x2="66.7%" y2="100%"><stop offset="20%" stop-color="#16312c" stop-opacity="1"></stop><stop offset="80%" stop-color="#16312c" stop-opacity="1"></stop></linearGradient></defs><g transform="translate(900, 0)"><path d="M0 432.7C-87.2 428 -174.5 423.4 -216.3 374.7C-258.2 326 -254.7 233.3 -283.2 163.5C-311.7 93.7 -372.2 46.9 -432.7 0L0 0Z" fill="#85b79d"></path></g><g transform="translate(0, 600)"><path d="M0 -432.7C65 -403.6 130 -374.5 197.5 -342.1C265 -309.7 335.1 -273.9 374.7 -216.3C414.3 -158.8 423.5 -79.4 432.7 0L0 0Z" fill="#85b79d"></path></g></svg>